Patient4_TMGait_0pt3_01_right_19_EMG.mot
version=1
nRows=23
nColumns=33
inDegrees=no
endheader
time	1LAddLong	2LGlutMax	3LGlutMed	4LIliopsoas	5LSemiMemb	6LBicFemLong	7LRecFem	8LVastMed	9LVastLat	10LGasMed	11LTibAnt	12lTibPost	13LPeroneusLong	14LSol	15LExtDigLong	16LFlexDigLong	17RAddLong	18RGlutMax	19RGlutMed	20RIliopsoas	21RSemiMemb	22RBicFemLong	23RRecFem	24RVastMed	25RVastLat	26RGasMed	27RTibAnt	28RTibPost	29RPeroneusLong	30RSol	31RExtDigLong	32RFlexDigLong
34.53	-0.005341	0.027466	-0.13886	0.011902	-0.029907	0.19089	0.18829	0.032654	-0.05127	0.052185	0.03891	0.01236	-0.19165	-0.23911	-0.070496	0.001373	-0.020142	0.042572	-0.18234	0.053406	-0.018768	-0.042267	0.08194	0.009766	-0.000458	0.000763	0.093842	0.001373	-0.001068	0.004425	-0.004272	-0.010681
34.531	-0.000763	0.040588	-0.092468	0.00351	0.012054	0.16586	0.24368	-0.005493	0.038757	-0.062866	0.042877	0.002747	0.11581	-0.065002	0.003204	0.012817	-0.010834	0.084686	-0.059967	-0.002136	-0.01236	-0.033569	0.103	0.014038	0.010986	-0.006409	0.27344	-0.006561	-0.090179	0.027313	0.002289	-0.007629
34.532	-0.004578	-0.087128	-0.12802	-0.001831	0.025635	0.21118	0.1767	-0.003204	0.092926	-0.028534	0.057983	-0.041504	0.19196	0.05249	0.009766	0.00412	0.01358	0.057983	-0.17487	-0.044403	0	-0.017242	0.11215	0.031433	0.014343	-0.01297	0.42267	-0.002441	-0.17777	0.10269	0.00061	-0.015259
34.533	-0.000458	-0.1506	-0.15854	0.009613	0.011292	0.17654	0.020294	0.004883	0.2298	-0.00946	0.007477	-0.10788	0.10819	0.10269	0.007477	0.00946	0.0383	0.024872	-0.15945	-0.11566	0.01709	-0.014343	0.084686	0.055389	0.018921	-0.006256	0.4335	-0.002136	-0.13901	0.09613	0.010071	-0.014801
34.534	-0.006256	-0.17975	-0.016479	0.018463	0.009308	0.14313	-0.093842	0.019226	0.40283	0.036163	0.005035	0.15762	0.037231	0.052185	0.006561	0.01236	0.050354	0.032654	-0.069885	-0.070648	0.029602	-0.010986	0.075836	0.003967	0.017548	-0.016479	0.58334	-0.005188	-0.12711	-0.026703	-0.001678	-0.018616
34.535	-0.009003	-0.19363	-0.009155	0.010376	0.010071	0.2179	-0.047913	-0.005951	0.28534	0.02182	0.015259	0.038147	0.028076	-0.006561	0.046997	0.001984	0.06073	0.007172	-0.12344	-0.088196	0.027771	-0.012665	0.038147	0.089417	0.011292	-0.006256	0.68558	-0.002747	-0.10513	-0.11337	-0.004883	-0.015564
34.536	-0.008698	-0.16495	-0.001068	0.006409	-0.000305	0.29373	-0.059814	0.006104	0.26291	-0.023499	-0.007172	0.005188	-0.091858	0.10101	0.074768	-0.003815	0.045319	0.02655	0.27206	-0.16647	0.006866	-0.022278	0.069122	0.004883	0.00946	0.003357	0.73975	-0.001221	-0.091095	-0.17029	-0.001068	-0.011597
34.537	-0.011139	-0.13504	0.10742	0.009003	-0.00061	0.10834	-0.15243	0.014801	0.2861	-0.024719	-0.00412	-0.042114	0.099182	0.091705	0.030823	0.059814	0.026245	0.0177	-0.064392	-0.24384	-0.006256	-0.043488	0.11612	-0.010834	-0.009918	0.00946	0.19623	-0.002136	-0.043335	-0.18494	-0.000916	-0.01236
34.538	-0.007477	-0.068054	0.050812	0.039825	0.000153	-0.05249	-0.13123	0.002441	0.27084	0.11002	-0.012207	-0.056915	0.13077	0.006561	0.043182	-0.018921	0.000458	0.049896	-0.16098	-0.28	0.003052	-0.051422	0.092468	-0.012817	0.006104	0.001068	-0.11322	-0.000763	0.010223	-0.17731	-0.002136	-0.008545
34.539	-0.014038	0.02655	-0.04837	0.030212	-0.000763	-0.027771	-0.028687	-0.027924	0.16602	0.37231	-0.007782	-0.029144	-0.061951	0.03952	0.013885	-0.020447	-0.009003	0.025177	-0.13412	-0.16403	0.018768	-0.03952	0.067749	0.019379	-0.003357	0.001526	-0.1004	-0.010376	0.090027	-0.1329	-0.000916	-0.009155
34.54	-0.015106	0.093231	-0.10208	0.02121	-0.00946	-0.053864	-0.025482	-0.068054	-0.054321	0.037079	0.007935	-0.007324	0.015411	0.14954	-0.022583	-0.031738	0.071564	0.041199	-0.045013	-0.024414	0.03418	-0.043793	0.071259	0.033722	-0.000763	-0.002441	-0.099792	-0.003052	0.049286	-0.070038	-0.000763	-0.015106
34.541	-0.011902	0.12207	-0.065155	0.01358	-0.001221	-0.22232	-0.048065	-0.06134	-0.38498	-0.097351	0.003967	0.023041	0.16022	0.13123	-0.005035	-0.008545	0.12131	0.046692	0.040436	0.015259	0.013123	-0.06073	0.057068	-0.032043	-0.019836	-0.004578	-0.37186	-0.009308	-0.06073	0.055695	0.001526	-0.013733
34.542	-0.018921	0.087128	0.15823	0.016937	0.004578	-0.242	-0.1294	-0.051117	-0.36529	-0.085297	-0.010376	0.042267	-0.35645	0.38376	-0.017395	0.033264	0.14282	-0.011292	0.061798	0.001526	0.010529	-0.060577	0.075836	-0.026245	-0.010376	-0.009918	-0.51956	-0.004425	-0.095367	0.16342	-0.002289	-0.012207
34.543	-0.024109	0.004883	0.06134	0.020142	-0.00946	-0.11856	-0.028534	-0.00473	-0.24948	0.049133	0.005798	0.023193	-0.21362	0.4422	-0.075836	0.001678	0.13275	0.016174	0.036926	0.13473	0.012207	-0.050659	0.062866	0.023041	0.004578	-0.013275	-0.2977	-0.006714	-0.1178	0.14435	0.000305	-0.005951
34.544	-0.020294	-0.081635	-0.035553	-0.010681	-0.013275	0.063324	0.015869	0.030823	-0.11902	0.10803	-0.001068	0.052795	0.31006	-0.057678	-0.074005	0.000153	0.11459	0.006866	-0.24582	0.18585	0.008087	-0.04715	0.029144	0.022125	-0.006104	-0.00885	-0.099335	-0.002289	-0.1355	0.11154	-0.000305	-0.015259
34.545	-0.007172	-0.10742	-0.096893	0.006409	-0.004272	0.20157	-0.062866	0.043793	0.031433	0.1358	0.002289	0.039978	0.1535	-0.42191	-0.07431	0.005188	0.065613	0.053101	-0.18875	0.242	0.02243	-0.021667	0.061493	0.032654	-0.006561	0.000763	0.001221	-0.002899	0.067902	0.045471	-0.001373	0.000763
34.546	0.007477	-0.082092	-0.15243	0.041656	0.017548	-0.039978	-0.1091	0.018158	0.17517	0.11139	-0.002136	0.003662	-0.10254	-0.091553	0.026703	0.084839	0.02243	0.067291	-0.097809	0.12573	0.029144	-0.000916	0.024109	0.049896	0.006409	0.003967	-0.049438	0.000763	0.2182	-0.027466	-0.000916	0.002747
34.547	0.024261	-0.095367	-0.095978	0.038605	0.021057	-0.025177	-0.065002	-0.006714	0.16861	0.073853	0.006561	0.005188	-0.090332	0.14603	-0.003357	0.005951	-0.025024	0.072937	0.049133	0.039368	0.052032	0.018158	0.033569	0.063171	-0.000458	-0.000458	-0.30746	0.00061	0.1709	0.019226	-0.007172	0.001831
34.548	0.027924	-0.12222	0.071106	-0.005798	0.017395	0.16235	0.038452	-0.022736	0.10513	-0.050964	0.002747	-0.19455	0.14847	0.23331	0.001678	0.033722	-0.039063	0.11566	0.22263	-0.031891	0.057678	0.015564	0.017242	0.084991	0.001221	0.009155	-0.44891	-0.007324	0.16892	-0.020142	-0.00061	-0.003662
34.549	0.020142	-0.078583	0.12238	0.005341	0.023041	0.42816	0.057831	-0.035706	0.053253	0.030518	-0.016632	0.003357	0.19104	0.31387	0.097351	0.042419	-0.036621	0.048981	0.14862	-0.046539	0.056763	0.013885	0.04837	0.11139	-0.005646	0.007477	-0.27588	-0.00412	0.044556	-0.10101	-0.005341	-0.004272
34.55	0.018311	0.014954	0.10284	0.001373	0.003815	0.39368	0.018921	-0.036621	0.047607	0.11856	0.010071	0.21225	-0.076294	0.27313	0.006256	0.028381	-0.040588	0.12726	0.067139	0.010834	0.04303	-0.026245	0.029755	0.063934	-0.015564	0.009308	-0.002594	0.000763	-0.007477	-0.15106	-0.00061	-0.011902
34.551	0.026093	0.07309	0.010681	0.001526	0.003204	0.46219	0.004883	-0.010681	-0.001068	0.065002	-0.001373	0.077667	0.15717	-0.058594	-0.044861	0.042725	-0.058136	0.085754	-0.2034	0.14389	0.040894	-0.037231	0.037079	0.030212	-0.015869	0.001068	0.31006	0.001678	-0.082245	-0.023041	0	-0.006561
34.552	0.014954	0.12756	0.077667	0.000458	0.002136	0.33081	-0.047302	0.001526	-0.057831	0.018921	-0.000763	-0.030212	0.2565	-0.29312	-0.000458	0.042419	-0.055084	0.040894	-0.19913	0.13626	0.039215	-0.044556	0.067444	0.030823	-0.022583	0.006104	0.44373	-0.003967	-0.085144	0.12909	-0.005493	-0.015259
